<?xml version="1.0" encoding="utf-8"?>
<svg xmlns="http://www.w3.org/2000/svg" xmlns:xlink="http://www.w3.org/1999/xlink" viewBox="0 0 1353 442.3">
<title>SVG in iframe / object mit klickbaren Links</title>
<g id="orange">
  <path style="fill:none;stroke:#80b13d;stroke-width:5" d="m 355.2,128 c 0,0 -28.6,75.6 -116.2,118.1 C 152,288.8 122,302.7 94,349" />
  <path style="fill:none;stroke:#80b13d;stroke-width:4" d="m 144,298.9 c 20,16.5 -6,34.3 -6,34.3" />
  <path style="fill:none;stroke:#80b13d;stroke-width:4" d="m 322.1,184.1 c -13.9,-3.3 -9.4,-33.7 -9.4,-33.7" />
  <path style="fill:none;stroke:#80b13d;stroke-width:4" d="m 300.6,204.3 c 11.4,12.8 62.1,2.6 62.1,2.6" />
  <circle style="fill:#f0a317" cx="218.7" cy="245.4" r="87.46" />
  <path style="fill:#cf4518" d="m 246.8,162.6 a 83.31,83.31 0 0 1 22.7,57.2 83.31,83.31 0 0 1 -83.5,83.3 83.31,83.31 0 0 1 -41,-11.1 87.46,87.46 0 0 0 73.7,40.9 87.46,87.46 0 0 0 87.4,-87.5 87.46,87.46 0 0 0 -59.3,-82.8 z" />
  <ellipse style="fill:#ea913c" cx="97.92" cy="274.2" rx="16.25" ry="10.37" transform="matrix(0.8083,-0.5888,0.3297,0.9441,0,0)" />
  <path style="fill:#d75f27" d="m 165,191.8 a 9.674,16.68 44.51 0 0 -9,19.4 9.674,16.68 44.51 0 0 1,1.7 9.674,16.68 44.51 0 1 10,-17.5 9.674,16.68 44.51 0 1 15,-1.3 9.674,16.68 44.51 0 0 -1,-2 9.674,16.68 44.51 0 0 -16,-0.3 z" id="ellipse12544" />
  <path style="fill:#83b9b8" d="M 348.4,131.2 C 412.9,142 371.6,25 371.6,25 c 0,0 -80.2,99.3 -23.2,106.2 z" />
  <path style="fill:#2a809d" d="m 371.6,25 c 0,0 -0.8,0.9 -1,1.2 L 353,131.7 C 410.8,136.3 371.6,25 371.6,25 Z" />
  <path d="m 311.4,163.9 c 57,-32 -48.5,-97.2 -48.5,-97.2 0,0 -0.2,127.6 48.5,97.2 z" style="fill:#83b9b8" />
  <path d="m 262.9,66.7 c 0,0 -0.1,1.1 0,1.4 l 52.4,93.4 C 363.2,128.8 262.9,66.7 262.9,66.7 Z" style="fill:#2a809d" />
  <path d="M 97,336.3 C 59,283 6,394.9 6,394.9 c 0,0 126,-13.4 91,-58.6 z" style="fill:#83b9b8" />
  <path d="m 6,394.9 c 0,0 1,-0.1 1,-0.3 L 95,332.7 C 57,288.5 6,394.9 6,394.9 Z" style="fill:#2a809d" />
  <path style="fill:#83b9b8" d="m 152,328.2 c -63,-15.4 -31,104.3 -31,104.3 0,0 87.3,-93.6 31,-104.3 z" />
  <path style="fill:#2a809d" d="m 121,432.5 c 0,0 1,-0.8 1,-1.2 l 26,-104 c -58,-8.7 -27,105.2 -27,105.2 z" />
  <path d="m 323.3,203 c -9.7,64.5 106.5,21.1 106.5,21.1 0,0 -100.6,-78.4 -106.5,-21.1 z" style="fill:#83b9b8" />
  <path d="m 429.8,224.1 c 0,0 -1,-0.7 -1.2,-0.8 L 322.9,207.5 c -3.6,57.9 106.9,16.6 106.9,16.6 z" style="fill:#2a809d" />
</g>
<g id="citrus">
  <circle transform="matrix(0.9659,0.2588,-0.2588,0.9659,0,0)" r="17.8" cy="261" cx="629.3" style="fill:#b01e16" />
  <path d="M 612.1,143 C 708.1,148.6 813,94.2 813,94.2" style="fill:none;stroke:#911328;stroke-width:6.5582" />
  <circle transform="matrix(0.9659,0.2588,-0.2588,0.9659,0,0)" style="fill:#b01e16" cx="629.3" cy="-16.09" r="9.326" />
  <rect transform="matrix(0.9659,0.2588,-0.2588,0.9659,0,0)" rx="95.55" y="-16.49" x="530.1" height="270.8" width="196.8" style="fill:#f5b903" />
  <path d="m 611.1,146.7 -70,261.4 2.9,0.8 c 51.2,13.8 103.4,-16.3 117,-67.5 l 20.6,-76.9 C 695.4,213.4 665.2,161.2 614,147.5 l -2.9,-0.8 z" style="fill:#ecaa04" />
  <path d="m 885.5,21.4 a 48.06,59.85 45 0 0 -56.3,19.4 48.06,59.85 45 0 0 -19,56.1 48.06,59.85 45 0 0 56.2,-19.1 48.06,59.85 45 0 0 19.1,-56.4 z" style="fill:#56b2c8" />
  <path d="m 885.4,21.5 -75.2,75.3 a 48.06,59.85 45 0 0 0,0.1 48.06,59.85 45 0 0 56.2,-19.1 48.06,59.85 45 0 0 19,-56.3 z" style="fill:#18719c" />
  <path style="fill:#56b2c8" d="m 670.7,44.7 a 59.85,48.06 45 0 0 19.1,56.2 59.85,48.06 45 0 0 56.2,19.2 59.85,48.06 45 0 0 -19.3,-56.2 59.85,48.06 45 0 0 -56,-19.2 z" />
  <path style="fill:#18719c" d="M 670.8,44.7 746,120.1 A 59.85,48.06 45 0 0 726.7,63.9 59.85,48.06 45 0 0 670.8,44.7 Z" />
  <path d="m 592.4,48.4 a 59.85,48.06 60 0 0 3.9,59.2 59.85,48.06 60 0 0 49.5,33 59.85,48.06 60 0 0 -4.1,-59.3 59.85,48.06 60 0 0 -49.3,-32.9 z" style="fill:#56b2c8" />
  <path d="m 592.4,48.4 53.3,92.1 a 59.85,48.06 60 0 0 0.1,0 59.85,48.06 60 0 0 -4.1,-59.2 59.85,48.06 60 0 0 -49.3,-32.9 z" style="fill:#18719c" />
  <path style="fill:#56b2c8" d="m 667.3,142.2 a 59.85,48.06 60 0 0 3.8,59.2 59.85,48.06 60 0 0 49.5,33 59.85,48.06 60 0 0 -3.8,-59.2 59.85,48.06 60 0 0 -49.5,-33 z" />
  <path style="fill:#18719c" d="m 667.3,142.3 53.3,92.1 a 59.85,48.06 60 0 0 -3.8,-59.2 59.85,48.06 60 0 0 -49.5,-32.9 z" />
  <path d="m 757.8,119.1 a 59.85,48.06 45 0 0 19,56.2 59.85,48.06 45 0 0 56.3,19 59.85,48.06 45 0 0 -19,-56.1 59.85,48.06 45 0 0 -56.3,-19.1 z" style="fill:#56b2c8" />
  <path d="m 757.8,119.1 75.3,75.2 a 59.85,48.06 45 0 0 -19,-56.1 59.85,48.06 45 0 0 -56.3,-19.1 z" style="fill:#18719c" />
</g>
<g id="cherry">
  <path d="m 1029,301.6 c 31,-41.2 201,-145.4 201,-145.4 0,0 -27,100.4 -67,139.8" style="fill:none;stroke:#116395;stroke-width:9" />
  <path style="fill:#56b2c8" d="m 1298,36.3 a 65.36,81.4 30 0 0 -68,45.2 65.36,81.4 30 0 0 -5,80.5 65.36,81.4 30 0 0 67,-44.8 65.36,81.4 30 0 0 6,-80.9 z" />
  <path style="fill:#18719c" d="m 1298,36.4 -73,125.3 a 65.36,81.4 30 0 0 0,0.3 65.36,81.4 30 0 0 67,-44.8 65.36,81.4 30 0 0 6,-80.8 z" />
  <path d="m 1083,158.4 a 81.4,65.36 0 0 0 72,35.6 81.4,65.36 0 0 0 73,-35.8 81.4,65.36 0 0 0 -73,-35.6 81.4,65.36 0 0 0 -72,35.8 z" style="fill:#56b2c8" />
  <path d="m 1083,158.4 144,0 a 81.4,65.36 0 0 0 1,-0.2 81.4,65.36 0 0 0 -73,-35.6 81.4,65.36 0 0 0 -72,35.8 z" style="fill:#18719c" />
  <path d="m 1002,261.7 c -20.7,-11.1 -43.6,-2.1 -59.1,22.9 -23.4,37.6 -15.6,96.5 23.4,122.4 0.7,0.4 1.2,0.9 2,1.3 0.4,0.2 0.6,0.3 0.8,0.5 0.3,0.2 0.7,0.4 0.9,0.5 0.9,0.5 1.6,0.8 2.3,1.1 0.1,0.2 0.1,0.2 0.1,0.2 41.6,20.6 96.6,-2.1 117.6,-41.2 22,-40.5 1,-76.9 -58,-68.6 0,0 -1,0.7 -1,0.8 0,-0.2 0,-1.2 0,-1.2 -8,-19.9 -18,-32.3 -29,-38.7 z" style="fill:#980a34" />
  <path d="m 1079,306.4 c -11,-6 -27,-8.4 -47,-5.6 0,0 -1,0.7 -1,0.8 0,-0.2 0,-1.2 0,-1.2 0,-0.2 0,-0.4 0,-0.7 l -62.7,108.6 0.8,0.5 0.9,0.5 c 0.9,0.5 1.6,0.8 2.3,1.1 l 0.1,0.2 c 41.6,20.6 96.6,-2.1 117.6,-41.2 14,-26.5 10,-51.3 -11,-63 z" style="fill:#b90c29" />
  <path style="fill:#980a34" d="m 1133,257.3 c -20,-11.1 -43,-2.1 -58,22.8 -24,37.7 -16,96.6 23,122.5 1,0.4 1,0.9 2,1.3 1,0.1 1,0.4 1,0.5 0,0.2 1,0.3 1,0.5 1,0.5 1,0.7 2,1.2 0,0.1 0,0.1 0,0.1 42,20.6 97,-2.1 118,-41.3 21,-40.3 1,-76.8 -58,-68.6 0,0 -1,0.7 -1,0.9 0,-0.2 0,-1.3 0,-1.3 -8,-19.8 -18,-32.3 -30,-38.6 z" />
  <path style="fill:#b90c29" d="m 1211,302 c -11,-6 -27,-8.5 -47,-5.7 0,0 -1,0.7 -1,0.9 0,-0.2 0,-1.3 0,-1.3 0,-0.2 0,-0.3 0,-0.6 l -63,108.6 1,0.5 1,0.5 c 1,0.5 1,0.7 2,1.2 l 0,0.1 c 42,20.6 97,-2.1 118,-41.3 14,-26.4 10,-51.3 -11,-62.9 z" />
</g>
</svg>
